<svg width="219" height="219" viewBox="0 0 219 219" fill="none" xmlns="http://www.w3.org/2000/svg">
<path fill-rule="evenodd" clip-rule="evenodd" d="M0 20.5312C0 18.7162 0.721036 16.9754 2.00449 15.692C3.28794 14.4085 5.02867 13.6875 6.84375 13.6875H27.375C28.9016 13.6879 30.3842 14.1987 31.5871 15.1387C32.7899 16.0787 33.644 17.3939 34.0134 18.8751L39.5569 41.0625H198.469C199.481 41.0631 200.48 41.2882 201.395 41.7216C202.31 42.1549 203.117 42.7858 203.758 43.5687C204.4 44.3516 204.86 45.267 205.105 46.249C205.35 47.231 205.374 48.2551 205.176 49.2476L191.488 117.685C191.189 119.178 190.4 120.527 189.248 121.522C188.095 122.516 186.644 123.097 185.123 123.174L56.502 129.634L60.4303 150.562H177.937C179.753 150.562 181.493 151.284 182.777 152.567C184.06 153.85 184.781 155.591 184.781 157.406C184.781 159.221 184.06 160.962 182.777 162.246C181.493 163.529 179.753 164.25 177.937 164.25H54.75C53.1545 164.249 51.6096 163.69 50.3825 162.67C49.1553 161.65 48.323 160.234 48.0294 158.666L27.5119 49.3708L22.0369 27.375H6.84375C5.02867 27.375 3.28794 26.654 2.00449 25.3705C0.721036 24.0871 0 22.3463 0 20.5312ZM42.4586 54.75L53.9561 116.056L179.115 109.774L190.119 54.75H42.4586ZM68.4375 164.25C61.1772 164.25 54.2143 167.134 49.0804 172.268C43.9466 177.402 41.0625 184.365 41.0625 191.625C41.0625 198.885 43.9466 205.848 49.0804 210.982C54.2143 216.116 61.1772 219 68.4375 219C75.6978 219 82.6607 216.116 87.7945 210.982C92.9284 205.848 95.8125 198.885 95.8125 191.625C95.8125 184.365 92.9284 177.402 87.7945 172.268C82.6607 167.134 75.6978 164.25 68.4375 164.25ZM164.25 164.25C156.99 164.25 150.027 167.134 144.893 172.268C139.759 177.402 136.875 184.365 136.875 191.625C136.875 198.885 139.759 205.848 144.893 210.982C150.027 216.116 156.99 219 164.25 219C171.51 219 178.473 216.116 183.607 210.982C188.741 205.848 191.625 198.885 191.625 191.625C191.625 184.365 188.741 177.402 183.607 172.268C178.473 167.134 171.51 164.25 164.25 164.25ZM68.4375 177.938C64.8073 177.938 61.3259 179.38 58.759 181.946C56.1921 184.513 54.75 187.995 54.75 191.625C54.75 195.255 56.1921 198.737 58.759 201.304C61.3259 203.87 64.8073 205.312 68.4375 205.312C72.0676 205.312 75.5491 203.87 78.116 201.304C80.6829 198.737 82.125 195.255 82.125 191.625C82.125 187.995 80.6829 184.513 78.116 181.946C75.5491 179.38 72.0676 177.938 68.4375 177.938ZM164.25 177.938C160.62 177.938 157.138 179.38 154.571 181.946C152.005 184.513 150.562 187.995 150.562 191.625C150.562 195.255 152.005 198.737 154.571 201.304C157.138 203.87 160.62 205.312 164.25 205.312C167.88 205.312 171.362 203.87 173.929 201.304C176.495 198.737 177.937 195.255 177.937 191.625C177.937 187.995 176.495 184.513 173.929 181.946C171.362 179.38 167.88 177.938 164.25 177.938Z" fill="#272727"/>
</svg>
