<svg width="262" height="262" viewBox="0 0 262 262" fill="none" xmlns="http://www.w3.org/2000/svg">
<g clip-path="url(#clip0_6_853)">
<path fill-rule="evenodd" clip-rule="evenodd" d="M131 245.625C161.4 245.625 190.556 233.548 212.052 212.052C233.548 190.556 245.625 161.4 245.625 131C245.625 100.6 233.548 71.4442 212.052 49.9479C190.556 28.4515 161.4 16.375 131 16.375C100.6 16.375 71.4442 28.4515 49.9479 49.9479C28.4515 71.4442 16.375 100.6 16.375 131C16.375 161.4 28.4515 190.556 49.9479 212.052C71.4442 233.548 100.6 245.625 131 245.625V245.625ZM131 262C165.743 262 199.064 248.198 223.631 223.631C248.198 199.064 262 165.743 262 131C262 96.2566 248.198 62.9363 223.631 38.369C199.064 13.8017 165.743 0 131 0C96.2566 0 62.9363 13.8017 38.369 38.369C13.8017 62.9363 0 96.2566 0 131C0 165.743 13.8017 199.064 38.369 223.631C62.9363 248.198 96.2566 262 131 262V262Z" fill="#56B280" fill-opacity="0.6"/>
<path fill-rule="evenodd" clip-rule="evenodd" d="M179.634 81.3837C181.925 79.112 185.019 77.8335 188.246 77.8246C191.473 77.8157 194.573 79.0771 196.877 81.3361C199.182 83.5951 200.504 86.6702 200.559 89.8965C200.614 93.1229 199.397 96.2412 197.171 98.5775L131.802 180.289C130.679 181.499 129.323 182.47 127.816 183.144C126.308 183.818 124.68 184.181 123.029 184.212C121.379 184.242 119.738 183.94 118.207 183.322C116.676 182.704 115.285 181.784 114.117 180.616L70.8055 137.288C69.5988 136.164 68.631 134.808 67.9598 133.301C67.2886 131.795 66.9276 130.169 66.8985 128.52C66.8694 126.871 67.1728 125.233 67.7904 123.703C68.4081 122.174 69.3275 120.785 70.4937 119.619C71.6599 118.452 73.0491 117.533 74.5783 116.915C76.1075 116.298 77.7455 115.994 79.3945 116.024C81.0435 116.053 82.6698 116.414 84.1763 117.085C85.6828 117.756 87.0386 118.724 88.163 119.93L122.452 154.203L179.323 81.744C179.424 81.6171 179.533 81.4968 179.65 81.3837H179.634Z" fill="#56B280" fill-opacity="0.6"/>
</g>
<defs>
<clipPath id="clip0_6_853">
<rect width="262" height="262" fill="white"/>
</clipPath>
</defs>
</svg>
