<svg width="276" height="276" viewBox="0 0 276 276" fill="none" xmlns="http://www.w3.org/2000/svg">
<path d="M276 138C276 214.215 214.215 276 138 276C61.7847 276 0 214.215 0 138C0 61.7847 61.7847 0 138 0C214.215 0 276 61.7847 276 138Z" fill="#F578A5"/>
<path d="M276 138C276 214.215 214.215 276 138 276C61.7847 276 0 214.215 0 138C0 61.7847 61.7847 0 138 0C214.215 0 276 61.7847 276 138Z" fill="#B08A42"/>
<path d="M207.821 217.079C207.821 216.677 207.502 216.347 207.099 216.333L80.7724 212.026C80.3501 212.012 80 212.35 80 212.773V275.91H207.821V217.079Z" fill="white"/>
<path d="M100.969 96.7683C129.054 57.7201 116.973 25.9361 117.007 25.8984C116.412 24.3067 117.22 22.534 118.811 21.9385C119.614 21.6381 120.506 21.6866 121.272 22.0717C171.958 46.3258 193.77 77.6356 197.947 105.943C199.608 116.941 198.57 128.178 194.923 138.686C191.581 148.382 186.014 157.161 178.669 164.318C164.54 177.963 144.795 184.253 125.307 177.876C120.322 176.25 115.618 173.864 111.362 170.802C102.822 164.673 96.3449 156.096 92.7866 146.206C89.0112 135.628 88.891 124.09 92.4458 113.436C94.4089 107.472 97.2845 101.85 100.969 96.7683Z" fill="white"/>
<path d="M117.624 26.9054C116.39 25.7377 116.336 23.7902 117.503 22.5559C118.671 21.3215 120.619 21.267 121.853 22.4347C121.944 22.5207 122.029 22.612 122.109 22.7083C122.222 22.8102 146.694 48.462 150.19 98.0416L150.226 98.5066C150.981 110.095 150.608 121.729 149.114 133.244L165.848 120.421C167.249 119.459 169.164 119.817 170.125 121.218C170.995 122.487 170.794 124.203 169.655 125.237L147.786 141.945C142.89 170.728 125.632 211.448 148.479 236.933C149.579 238.228 149.422 240.17 148.127 241.27C146.894 242.318 145.061 242.232 143.932 241.074C116.534 210.536 136.47 172.705 141.926 139.99L141.998 139.531C144.216 126.512 144.977 113.287 144.265 100.1L124.595 85.6883C123.192 84.7294 122.833 82.8146 123.792 81.4117C124.751 80.0087 126.665 79.6489 128.068 80.6078C128.126 80.6476 128.183 80.6892 128.238 80.733L143.479 91.953C138.725 48.9752 117.714 27.0085 117.624 26.9054Z" fill="#B08A42"/>
</svg>
