<svg width="66" height="66" viewBox="0 0 66 66" fill="none" xmlns="http://www.w3.org/2000/svg">
<mask id="mask0_6_843" style="mask-type:alpha" maskUnits="userSpaceOnUse" x="0" y="0" width="64" height="64">
<circle cx="31.681" cy="31.681" r="31.681" fill="#F578A5"/>
</mask>
<g mask="url(#mask0_6_843)">
<circle cx="31.681" cy="31.681" r="31.681" fill="white"/>
<path d="M17.1081 62.9028V63.5959H17.8011H47.1864H47.8794V62.9028V50.5728C47.8794 49.4403 46.9818 48.5116 45.85 48.473L19.2808 47.5672C18.093 47.5267 17.1081 48.4786 17.1081 49.6671V62.9028Z" fill="#272727" stroke="#272727" stroke-width="1.38604"/>
<g clip-path="url(#clip0_6_843)">
<path d="M23.2121 22.246C29.6685 13.269 26.8913 5.96203 26.8991 5.95336C26.7622 5.58743 26.948 5.17989 27.3139 5.043C27.4984 4.97395 27.7035 4.98508 27.8795 5.07362C39.5321 10.6495 44.5465 17.8475 45.5068 24.3552C45.8885 26.8836 45.6499 29.4669 44.8115 31.8827C44.0432 34.1117 42.7634 36.1298 41.0748 37.7752C37.8267 40.9121 33.2873 42.3582 28.8072 40.8922C27.6612 40.5183 26.5798 39.9698 25.6012 39.2659C23.6381 37.857 22.149 35.8852 21.3309 33.6114C20.463 31.1795 20.4354 28.527 21.2526 26.0777C21.7039 24.7068 22.365 23.4142 23.2121 22.246Z" fill="#272727"/>
<path d="M27.041 6.18513C26.7572 5.91668 26.7447 5.46896 27.0132 5.18519C27.2816 4.90142 27.7293 4.8889 28.0131 5.15735C28.034 5.1771 28.0535 5.19809 28.0719 5.22025C28.0979 5.24366 33.7239 11.1409 34.5276 22.5389L34.536 22.6458C34.7095 25.3099 34.6238 27.9844 34.2803 30.6319L38.1272 27.6837C38.4495 27.4628 38.8898 27.5449 39.1106 27.8671C39.3106 28.1588 39.2645 28.5533 39.0026 28.791L33.9751 32.6321C32.8495 39.2492 28.8818 48.6104 34.1343 54.4694C34.3872 54.7671 34.351 55.2135 34.0533 55.4665C33.7699 55.7073 33.3485 55.6875 33.0889 55.4213C26.7903 48.4007 31.3735 39.7035 32.6278 32.1826L32.6443 32.0771C33.1543 29.0842 33.3291 26.0437 33.1654 23.0121L28.6436 19.699C28.321 19.4785 28.2383 19.0383 28.4588 18.7158C28.6792 18.3933 29.1194 18.3106 29.442 18.531C29.4553 18.5402 29.4684 18.5497 29.481 18.5598L32.9847 21.1392C31.8918 11.2588 27.0615 6.20882 27.041 6.18513Z" fill="white"/>
</g>
</g>
<defs>
<clipPath id="clip0_6_843">
<rect width="38.8832" height="38.8832" fill="white" transform="translate(3.73474 31.0383) rotate(-48)"/>
</clipPath>
</defs>
</svg>
