<svg width="201" height="201" viewBox="0 0 201 201" fill="none" xmlns="http://www.w3.org/2000/svg">
<path fill-rule="evenodd" clip-rule="evenodd" d="M163.312 175.875C163.312 175.875 175.875 175.875 175.875 163.312C175.875 150.75 163.312 113.062 100.5 113.062C37.6875 113.062 25.125 150.75 25.125 163.312C25.125 175.875 37.6875 175.875 37.6875 175.875H163.312ZM37.7503 164.016V163.991V164.016ZM37.9639 163.312H163.036C163.095 163.306 163.154 163.297 163.212 163.287L163.312 163.262C163.3 160.172 161.378 150.876 152.861 142.358C144.67 134.167 129.256 125.625 100.5 125.625C71.7319 125.625 56.3303 134.167 48.1395 142.358C39.6221 150.876 37.7126 160.172 37.6875 163.262C37.7794 163.28 37.8716 163.297 37.9639 163.312V163.312ZM163.262 164.016V163.991V164.016ZM100.5 87.9375C107.164 87.9375 113.554 85.2904 118.266 80.5786C122.978 75.8667 125.625 69.4761 125.625 62.8125C125.625 56.1489 122.978 49.7583 118.266 45.0464C113.554 40.3346 107.164 37.6875 100.5 37.6875C93.8364 37.6875 87.4458 40.3346 82.7339 45.0464C78.0221 49.7583 75.375 56.1489 75.375 62.8125C75.375 69.4761 78.0221 75.8667 82.7339 80.5786C87.4458 85.2904 93.8364 87.9375 100.5 87.9375V87.9375ZM138.188 62.8125C138.188 72.8078 134.217 82.3938 127.149 89.4616C120.081 96.5294 110.495 100.5 100.5 100.5C90.5047 100.5 80.9187 96.5294 73.8509 89.4616C66.7831 82.3938 62.8125 72.8078 62.8125 62.8125C62.8125 52.8172 66.7831 43.2312 73.8509 36.1634C80.9187 29.0956 90.5047 25.125 100.5 25.125C110.495 25.125 120.081 29.0956 127.149 36.1634C134.217 43.2312 138.187 52.8172 138.188 62.8125V62.8125Z" fill="#272727"/>
</svg>
