<svg width="200" height="200" viewBox="0 0 200 200" fill="none" xmlns="http://www.w3.org/2000/svg">
<g clip-path="url(#clip0_6_873)">
<path d="M129.167 116.667H122.583L120.25 114.417C128.417 104.917 133.333 92.5833 133.333 79.1667C133.333 49.25 109.083 25 79.1667 25C49.25 25 25 49.25 25 79.1667C25 109.083 49.25 133.333 79.1667 133.333C92.5833 133.333 104.917 128.417 114.417 120.25L116.667 122.583V129.167L158.333 170.75L170.75 158.333L129.167 116.667ZM79.1667 116.667C58.4167 116.667 41.6667 99.9167 41.6667 79.1667C41.6667 58.4167 58.4167 41.6667 79.1667 41.6667C99.9167 41.6667 116.667 58.4167 116.667 79.1667C116.667 99.9167 99.9167 116.667 79.1667 116.667Z" fill="#272727"/>
</g>
<defs>
<clipPath id="clip0_6_873">
<rect width="200" height="200" fill="white"/>
</clipPath>
</defs>
</svg>
